<?xml version="1.0" standalone="no"?><!DOCTYPE svg PUBLIC "-//W3C//DTD SVG 1.1//EN" "http://www.w3.org/Graphics/SVG/1.1/DTD/svg11.dtd"><svg t="1594973102980" class="icon" viewBox="0 0 1024 1024" version="1.1" xmlns="http://www.w3.org/2000/svg" p-id="2033" width="200" height="200" xmlns:xlink="http://www.w3.org/1999/xlink"><defs><style type="text/css"></style></defs><path d="M239.616 286.72 301.056 286.72 348.16 382.976Z" p-id="2034"></path><path d="M239.616 743.424 301.056 743.424 348.16 618.496Z" p-id="2035"></path><path d="M784.384 743.424 724.992 743.424 675.84 618.496Z" p-id="2036"></path><path d="M792.576 286.72 737.28 286.72 694.272 382.976Z" p-id="2037"></path><path d="M75.776 221.184l155.648 0 0 155.648-155.648 0 0-155.648Z" p-id="2038"></path><path d="M792.576 221.184l155.648 0 0 155.648-155.648 0 0-155.648Z" p-id="2039"></path><path d="M792.576 665.6l155.648 0 0 155.648-155.648 0 0-155.648Z" p-id="2040"></path><path d="M75.776 665.6l155.648 0 0 155.648-155.648 0 0-155.648Z" p-id="2041"></path><path d="M438.272 75.776l155.648 0 0 155.648-155.648 0 0-155.648Z" p-id="2042"></path><path d="M438.272 794.624l155.648 0 0 155.648-155.648 0 0-155.648Z" p-id="2043"></path><path d="M190.464 475.136l81.92 0 0 81.92-81.92 0 0-81.92Z" p-id="2044"></path><path d="M307.2 372.736 518.144 253.952 727.04 372.736 518.144 507.904Z" p-id="2045"></path><path d="M501.76 778.24 292.864 628.736 292.864 403.456 501.76 538.624Z" p-id="2046"></path><path d="M751.616 475.136l81.92 0 0 81.92-81.92 0 0-81.92Z" p-id="2047"></path><path d="M737.28 405.504 724.992 659.456 540.672 778.24 538.624 534.528Z" p-id="2048"></path></svg>