<?xml version="1.0" standalone="no"?><!DOCTYPE svg PUBLIC "-//W3C//DTD SVG 1.1//EN" "http://www.w3.org/Graphics/SVG/1.1/DTD/svg11.dtd"><svg t="1594973275357" class="icon" viewBox="0 0 1024 1024" version="1.1" xmlns="http://www.w3.org/2000/svg" p-id="1795" width="200" height="200" xmlns:xlink="http://www.w3.org/1999/xlink"><defs><style type="text/css"></style></defs><path d="M829.3 209.4L546 64.2c-21.7-11.1-47.7-11.1-69.4 0L193.4 209.4c-26.3 13.5-42.6 40.5-42.6 70.5v387.6c0 25.6 12.2 49.6 32.7 64.4l299.4 224.3 0.4 0.3c8.4 6 18.2 9 28 9s19.7-3 28-9l0.2-0.2 299.6-224.5c20.5-14.8 32.7-38.8 32.7-64.4V279.8c0.1-30-16.3-57-42.5-70.4z m-5.4 458c0 10.2-4.8 19.8-12.8 25.5l-0.2 0.2-299.5 224.4-299.3-224.2-0.4-0.3c-8-5.8-12.8-15.3-12.8-25.5V279.8c0-11.7 6.5-22.6 16.5-27.8l283.2-145.2c8.1-4.2 17.5-4.2 25.6 0L807.4 252c10 5.1 16.5 16 16.5 27.8v387.6zM510.7 233.2zM512.6 304.2z" p-id="1796"></path><path d="M415.9 403.8c1.6 52.4 44.6 93.9 96.7 93.9h2.9c53.4-1.6 95.4-46.2 93.8-99.6-1.6-52.4-44.5-93.9-96.7-93.9v30c17.4 0 33.9 6.7 46.4 18.8 12.5 12.2 19.7 28.5 20.3 46 0.5 17.8-5.9 34.8-18.1 47.8-12.2 13-28.8 20.4-46.6 20.9h-2c-17.4 0-33.9-6.7-46.4-18.8-12.5-12.2-19.7-28.5-20.3-46-0.5-17.8 5.9-34.8 18.1-47.8 12.2-13 28.8-20.4 46.6-20.9h2v-30h-2.9c-53.4 1.6-95.4 46.2-93.8 99.6z" p-id="1797"></path><path d="M647.9 502.4l-7.7 5c24.9-30.2 39.3-69.3 38.1-111.5-2.7-90.9-77.2-162.8-167.6-162.8v36c34.3 0 66.9 13.2 91.6 37.1 24.8 24 39 56.2 40 90.7 1 35.2-11.7 68.7-35.8 94.3-24.1 25.6-56.8 40.3-92 41.3-1.3 0-2.7 0.1-4 0.1-34.1 0-66.4-13-91.1-36.7l0.1-0.2-1-0.7c-24.5-24-38.5-56-39.6-90.3-1-35.2 11.7-68.7 35.8-94.3 24.1-25.6 56.8-40.3 92-41.3 1.3 0 2.7-0.1 4-0.1v-36c-1.7 0-3.4 0-5.1 0.1-92.6 2.7-165.4 80-162.7 172.7 1.1 36.6 13.9 70.2 34.6 97.2L273.4 649.5c-3.4 4.8-3.7 11.1-0.7 16.2s8.6 8 14.5 7.4l69.6-7 16.2 68c1.4 5.7 5.9 10.1 11.7 11.3 1 0.2 1.9 0.3 2.9 0.3 4.8 0 9.4-2.3 12.2-6.3l113.6-159.6 104.7 159.4c2.8 4.3 7.5 6.8 12.5 6.8 0.8 0 1.5-0.1 2.3-0.2 5.8-0.9 10.6-5.1 12.1-10.8l18.7-67.4 69.3 9.6c5.8 0.8 11.6-1.9 14.7-6.8 3.1-5 3.1-11.3-0.1-16.2l-99.7-151.8zM394.4 695l-11.6-48.6c-1.7-7.3-8.6-12.2-16.1-11.5l-49.7 5 81.4-114.4c23.9 21.6 54 36.3 87.2 41.2L394.4 695z m260.4-59c-7.4-1-14.5 3.6-16.5 10.8L624.9 695l-84.7-129c32.8-5.8 62.2-21.2 85.4-43l78.7 119.8-49.5-6.8z" p-id="1798"></path></svg>