<?xml version="1.0" standalone="no"?><!DOCTYPE svg PUBLIC "-//W3C//DTD SVG 1.1//EN" "http://www.w3.org/Graphics/SVG/1.1/DTD/svg11.dtd"><svg t="1594972906953" class="icon" viewBox="0 0 1024 1024" version="1.1" xmlns="http://www.w3.org/2000/svg" p-id="2030" width="200" height="200" xmlns:xlink="http://www.w3.org/1999/xlink"><defs><style type="text/css"></style></defs><path d="M324.2 565.4l-0.1 0.3c-0.1 0.5-0.3 1-0.7 1.7L323 568c-0.4 0.5-0.6 0.8-0.7 1.1L271 757.2c-2.6 9.6 0.1 19.7 7.2 27 5.2 5 12.4 7.8 19.7 7.8 2.4 0 4.8-0.3 7.2-0.9l189.2-51 0.3 0.1 0.4-0.1c0.8-0.2 1.2-0.4 1.8-1l499.8-499.8c13.9-13.9 21.6-33.2 21.6-54.2 0-23.9-10.2-47.7-27.9-65.3l-47.3-47.3c-17.8-17.8-41.7-27.9-65.6-27.9-20.9 0-40.1 7.7-54.2 21.6L324.4 565.2 324.2 565.4zM904.1 111.5l47.3 47.3c5.7 5.7 9 13.3 9 20.9-0.3 6.8-2.5 12.4-6.7 16.6L900.9 249l-86.5-87.9 51.9-51.8 0 0C875.7 100 893.3 101 904.1 111.5zM402.7 573l366.8-366.9 86.6 88L489.9 660.2 402.7 573zM336.9 725.3l29.8-110 79.9 80L336.9 725.3z" p-id="2031"></path><path d="M982.1 395.8c-16.6 0-30.1 13.6-30.1 30.4l0 466c0 26.8-21.8 48.6-48.6 48.6L115 940.8c-26.8 0-48.6-21.8-48.6-48.6L66.4 131.5c0-26.8 21.8-48.6 48.6-48.6l507.7 0c16.6 0 30.1-13.5 30.1-30.1 0-16.6-13.5-30.1-30.1-30.1l-513 0C52.5 22.7 5.9 69.2 5.9 126.5l0 771.1c0 57.2 46.6 103.8 103.8 103.8l798.7 0c57.2 0 103.8-46.6 103.8-103.8L1012.2 425.9C1012.2 409.3 998.7 395.8 982.1 395.8z" p-id="2032"></path></svg>